<?xml version="1.0" encoding="utf-8"?>
<!-- Generator: Adobe Illustrator 14.0.0, SVG Export Plug-In . SVG Version: 6.00 Build 43363)  -->
<!DOCTYPE svg PUBLIC "-//W3C//DTD SVG 1.1//EN" "http://www.w3.org/Graphics/SVG/1.1/DTD/svg11.dtd">
<svg version="1.1"
	 id="svg4460" xmlns:rdf="http://www.w3.org/1999/02/22-rdf-syntax-ns#" xmlns:dc="http://purl.org/dc/elements/1.1/" xmlns:cc="http://creativecommons.org/ns#" xmlns:svg="http://www.w3.org/2000/svg" xmlns:inkscape="http://www.inkscape.org/namespaces/inkscape"
	 xmlns="http://www.w3.org/2000/svg" xmlns:xlink="http://www.w3.org/1999/xlink" x="0px" y="0px" width="24px" height="24px"
	 viewBox="0 0 24 24" enable-background="new 0 0 24 24" xml:space="preserve">
<g id="layer1" transform="translate(0,-1028.3622)">
	<g id="building-24" transform="translate(-630.00002,-45.999983)">
		
			<path id="path6138" inkscape:connector-curvature="0" opacity="0.3" fill="#FFFFFF" stroke="#FFFFFF" stroke-width="2" stroke-linejoin="round" enable-background="new    " d="
			M641,1077.362l-7.5,6.5c-0.356,0.309-0.5,0.5-0.5,0.75c0,0.496,0.5,0.75,1,0.75h1v8c0,0.554,0.446,1,1,1h6.5h6.5
			c0.555,0,1-0.446,1-1v-8h1c0.5,0,1-0.254,1-0.75c0-0.25-0.139-0.448-0.5-0.75l-7.5-6.5H641z"/>
		<path id="path5881" inkscape:connector-curvature="0" fill="#53794C" stroke="#FFFFDD" stroke-width="2" d="M641,1077.362
			l-7.5,6.5c-0.356,0.309-0.5,0.5-0.5,0.75c0,0.496,0.5,0.75,1,0.75h1v8c0,0.554,0.446,1,1,1h6.5h6.5c0.555,0,1-0.446,1-1v-8h1
			c0.5,0,1-0.254,1-0.75c0-0.25-0.139-0.448-0.5-0.75l-7.5-6.5H641z"/>
	</g>
</g>
<rect id="canvas" display="none" fill="none" width="24" height="24"/>
</svg>
